<?xml version="1.0" encoding="utf-8"?>
<!-- Generator: Adobe Illustrator 17.0.0, SVG Export Plug-In . SVG Version: 6.00 Build 0)  -->
<!DOCTYPE svg PUBLIC "-//W3C//DTD SVG 1.1//EN" "http://www.w3.org/Graphics/SVG/1.1/DTD/svg11.dtd">
<svg version="1.1" id="Слой_1" xmlns="http://www.w3.org/2000/svg" xmlns:xlink="http://www.w3.org/1999/xlink" x="0px" y="0px"
	 width="30px" height="30px" viewBox="0 0 30 30" enable-background="new 0 0 30 30" xml:space="preserve">
<path stroke="#FFFFFF" stroke-width="2" stroke-miterlimit="10" d="M27.625,11.876c0,2.041-1.145,3.602-1.145,3.602
	c-0.629,0.857-1.762,2.17-2.519,2.919l-7.565,7.489c-0.756,0.749-1.995,0.749-2.751,0l-7.565-7.489
	c-0.757-0.749-1.89-2.062-2.519-2.919c0,0-1.145-1.56-1.145-3.602c0-3.871,3.17-7.008,7.081-7.008c2.011,0,3.828,0.83,5.116,2.163
	c0.144,0.148,0.144,0.148,0.144,0.148c0.145,0.172,0.385,0.172,0.53,0c0,0,0,0,0.143-0.148c1.289-1.334,3.105-2.163,5.116-2.163
	C24.455,4.867,27.625,8.005,27.625,11.876z"/>
</svg>
