<svg xmlns="http://www.w3.org/2000/svg" width="30" height="30" viewBox="0 0 30 30"><path stroke="#FFF" stroke-width="2" stroke-miterlimit="10" d="M27.625 11.876c0 2.041-1.145 3.602-1.145 3.602a29.622 29.622 0 0 1-2.519 2.919l-7.565 7.489a1.965 1.965 0 0 1-2.751 0L6.08 18.397a29.622 29.622 0 0 1-2.519-2.919s-1.145-1.56-1.145-3.602c0-3.871 3.17-7.008 7.081-7.008 2.011 0 3.828.83 5.116 2.163l.144.148a.337.337 0 0 0 .53 0l.143-.148a7.092 7.092 0 0 1 5.116-2.163c3.909-.001 7.079 3.137 7.079 7.008z"/></svg>